<svg width="16" height="16" viewBox="0 0 16 16" fill="none" xmlns="http://www.w3.org/2000/svg">
<path d="M8 12.0667C7.53333 12.0667 7.13333 11.6667 7.13333 11.2V4.80002C7.13333 4.33335 7.53333 3.93335 8 3.93335C8.46666 3.93335 8.86666 4.33335 8.86666 4.80002V11.2667C8.86666 11.7333 8.46666 12.0667 8 12.0667Z" stroke="#676B71" stroke-width="1.3" stroke-miterlimit="10"/>
<path d="M4.46666 5.93328C4.66666 5.53328 5.19999 5.39994 5.66666 5.59994L11.2667 8.79994C11.6667 9.06661 11.8 9.59994 11.6 9.99994C11.3333 10.3999 10.8 10.5333 10.4 10.3333L4.79999 7.13328C4.33333 6.93328 4.19999 6.39994 4.46666 5.93328Z" stroke="#676B71" stroke-width="1.3" stroke-miterlimit="10"/>
<path d="M4.46667 10.0666C4.2 9.66659 4.4 9.13325 4.8 8.86659L10.4 5.66659C10.8 5.39992 11.3333 5.59992 11.6 5.99992C11.8667 6.39992 11.6667 6.93325 11.2667 7.19992L5.66667 10.3999C5.2 10.5999 4.66667 10.4666 4.46667 10.0666Z" stroke="#676B71" stroke-width="1.3" stroke-miterlimit="10"/>
<path d="M8.00001 14.6666C11.6819 14.6666 14.6667 11.6818 14.6667 7.99992C14.6667 4.31802 11.6819 1.33325 8.00001 1.33325C4.31811 1.33325 1.33334 4.31802 1.33334 7.99992C1.33334 11.6818 4.31811 14.6666 8.00001 14.6666Z" stroke="#676B71" stroke-width="1.3" stroke-miterlimit="10"/>
</svg>
