<svg width="16" height="16" viewBox="0 0 16 16" fill="none" xmlns="http://www.w3.org/2000/svg">
<path d="M6.66668 11.3001H4.14001C1.89334 11.3001 1.33334 10.7401 1.33334 8.49343V4.49343C1.33334 2.24677 1.89334 1.68677 4.14001 1.68677H11.16C13.4067 1.68677 13.9667 2.24677 13.9667 4.49343" stroke="#676B71" stroke-width="1.3" stroke-linecap="round" stroke-linejoin="round"/>
<path d="M6.66666 14.3134V11.3" stroke="#676B71" stroke-width="1.5" stroke-linecap="round" stroke-linejoin="round"/>
<path d="M1.33334 8.6333H6.66668" stroke="#676B71" stroke-width="1.3" stroke-linecap="round" stroke-linejoin="round"/>
<path d="M4.49335 14.3132H6.66668" stroke="#676B71" stroke-width="1.5" stroke-linecap="round" stroke-linejoin="round"/>
<path d="M14.6667 8.53339V12.3401C14.6667 13.9201 14.2733 14.3134 12.6933 14.3134H10.3267C8.74667 14.3134 8.35333 13.9201 8.35333 12.3401V8.53339C8.35333 6.95339 8.74667 6.56006 10.3267 6.56006H12.6933C14.2733 6.56006 14.6667 6.95339 14.6667 8.53339Z" stroke="#676B71" stroke-width="1.3" stroke-linecap="round" stroke-linejoin="round"/>
<path d="M11.4963 12.1666H11.5023" stroke="#676B71" stroke-width="2" stroke-linecap="round" stroke-linejoin="round"/>
</svg>
