<svg width="16" height="16" viewBox="0 0 16 16" fill="none" xmlns="http://www.w3.org/2000/svg">
<path d="M6.39999 13.3334H9.59999C12.2667 13.3334 13.3333 12.2667 13.3333 9.60008V6.40008C13.3333 3.73341 12.2667 2.66675 9.59999 2.66675H6.39999C3.73332 2.66675 2.66666 3.73341 2.66666 6.40008V9.60008C2.66666 12.2667 3.73332 13.3334 6.39999 13.3334Z" stroke="#676B71" stroke-width="1.3" stroke-linecap="round" stroke-linejoin="round"/>
<path d="M6.99999 11.3334H8.99999C10.6667 11.3334 11.3333 10.6667 11.3333 9.00008V7.00008C11.3333 5.33341 10.6667 4.66675 8.99999 4.66675H6.99999C5.33332 4.66675 4.66666 5.33341 4.66666 7.00008V9.00008C4.66666 10.6667 5.33332 11.3334 6.99999 11.3334Z" stroke="#676B71" stroke-width="1.3" stroke-linecap="round" stroke-linejoin="round"/>
<path d="M5.34 2.66659V1.33325" stroke="#676B71" stroke-width="1.3" stroke-linecap="round" stroke-linejoin="round"/>
<path d="M8 2.66659V1.33325" stroke="#676B71" stroke-width="1.3" stroke-linecap="round" stroke-linejoin="round"/>
<path d="M10.6667 2.66659V1.33325" stroke="#676B71" stroke-width="1.3" stroke-linecap="round" stroke-linejoin="round"/>
<path d="M13.3333 5.33325H14.6667" stroke="#676B71" stroke-width="1.3" stroke-linecap="round" stroke-linejoin="round"/>
<path d="M13.3333 8H14.6667" stroke="#676B71" stroke-width="1.3" stroke-linecap="round" stroke-linejoin="round"/>
<path d="M13.3333 10.6667H14.6667" stroke="#676B71" stroke-width="1.3" stroke-linecap="round" stroke-linejoin="round"/>
<path d="M10.6667 13.3333V14.6666" stroke="#676B71" stroke-width="1.3" stroke-linecap="round" stroke-linejoin="round"/>
<path d="M8.00665 13.3333V14.6666" stroke="#676B71" stroke-width="1.3" stroke-linecap="round" stroke-linejoin="round"/>
<path d="M5.34 13.3333V14.6666" stroke="#676B71" stroke-width="1.3" stroke-linecap="round" stroke-linejoin="round"/>
<path d="M1.33334 5.33325H2.66668" stroke="#676B71" stroke-width="1.3" stroke-linecap="round" stroke-linejoin="round"/>
<path d="M1.33334 8H2.66668" stroke="#676B71" stroke-width="1.3" stroke-linecap="round" stroke-linejoin="round"/>
<path d="M1.33334 10.6667H2.66668" stroke="#676B71" stroke-width="1.3" stroke-linecap="round" stroke-linejoin="round"/>
</svg>