<svg width="16" height="16" viewBox="0 0 16 16" fill="none" xmlns="http://www.w3.org/2000/svg">
<path d="M2.93999 11.1667C2.77999 13.0934 4.23332 14.6667 6.16666 14.6667H9.35999C11.5333 14.6667 13.0267 12.9134 12.6667 10.7667C12.2867 8.51341 10.1133 6.66675 7.82666 6.66675C5.34666 6.66675 3.14666 8.69341 2.93999 11.1667Z" stroke="#676B71" stroke-width="1.3" stroke-linecap="round" stroke-linejoin="round"/>
<path d="M6.97999 5.00008C7.90047 5.00008 8.64666 4.25389 8.64666 3.33341C8.64666 2.41294 7.90047 1.66675 6.97999 1.66675C6.05952 1.66675 5.31332 2.41294 5.31332 3.33341C5.31332 4.25389 6.05952 5.00008 6.97999 5.00008Z" stroke="#676B71" stroke-width="1.3" stroke-linecap="round" stroke-linejoin="round"/>
<path d="M11.5333 5.79997C12.2697 5.79997 12.8667 5.20301 12.8667 4.46663C12.8667 3.73025 12.2697 3.1333 11.5333 3.1333C10.797 3.1333 10.2 3.73025 10.2 4.46663C10.2 5.20301 10.797 5.79997 11.5333 5.79997Z" stroke="#676B71" stroke-width="1.3" stroke-linecap="round" stroke-linejoin="round"/>
<path d="M14 8.46655C14.5523 8.46655 15 8.01884 15 7.46655C15 6.91427 14.5523 6.46655 14 6.46655C13.4477 6.46655 13 6.91427 13 7.46655C13 8.01884 13.4477 8.46655 14 8.46655Z" stroke="#676B71" stroke-width="1.3" stroke-linecap="round" stroke-linejoin="round"/>
<path d="M2.64666 7.13322C3.38304 7.13322 3.97999 6.53627 3.97999 5.79989C3.97999 5.06351 3.38304 4.46655 2.64666 4.46655C1.91028 4.46655 1.31332 5.06351 1.31332 5.79989C1.31332 6.53627 1.91028 7.13322 2.64666 7.13322Z" stroke="#676B71" stroke-width="1.3" stroke-linecap="round" stroke-linejoin="round"/>
</svg>
