<svg width="14" height="14" viewBox="0 0 14 14" fill="none" xmlns="http://www.w3.org/2000/svg">
<path d="M5.19599 5.0746L6.08732 6.8576L4.28366 7.7596L0.666656 6.55393L1.56199 3.86726L5.19599 5.0746ZM8.80432 5.09093L7.91266 6.87393L9.71632 7.77593L13.3333 6.56993L12.438 3.88326L8.80432 5.09093ZM4.40832 8.20093L6.35666 7.77793L6.78432 9.74893L4.72132 12.9553L2.33999 11.4229L4.40832 8.20093ZM5.59666 4.8666L7.00632 6.27626L8.43232 4.85026V1.0376H5.60066L5.59666 4.8666ZM9.60465 8.20793L7.65632 7.78526L7.22866 9.75593L9.29166 12.9626L11.673 11.4303L9.60465 8.20793Z" stroke="#676B71" stroke-linecap="round" stroke-linejoin="round"/>
</svg>
