<svg width="11" height="9" viewBox="0 0 11 9" fill="none" xmlns="http://www.w3.org/2000/svg">
<path d="M8.49067 8.66674C8.41815 8.6669 8.34646 8.65128 8.28058 8.62097C8.21469 8.59066 8.15619 8.54638 8.10913 8.4912C8.06207 8.43602 8.02758 8.37126 8.00804 8.30142C7.98851 8.23158 7.9844 8.15832 7.996 8.08674C8.04467 7.78607 8.194 7.0254 8.534 6.46207C8.89334 5.86674 9.376 5.35074 9.858 5.04607C9.9701 4.97517 10.1058 4.9517 10.2352 4.98083C10.3646 5.00996 10.4771 5.0893 10.548 5.2014C10.6189 5.3135 10.6424 5.44917 10.6132 5.57857C10.5841 5.70797 10.5048 5.8205 10.3927 5.8914C10.0427 6.11274 9.668 6.5194 9.39067 6.97874C9.18667 7.31607 9.04667 7.85474 8.984 8.24607C8.96515 8.36337 8.90516 8.47012 8.81476 8.5472C8.72436 8.62428 8.60947 8.66666 8.49067 8.66674ZM4.5 2.66674C4.38652 2.66688 4.27638 2.62832 4.18777 2.55741C4.09917 2.4865 4.0374 2.38749 4.01267 2.27674C3.9981 2.21273 3.9963 2.14648 4.0074 2.08178C4.01849 2.01708 4.04224 1.95521 4.0773 1.89972C4.11236 1.84422 4.15802 1.79619 4.21169 1.75838C4.26535 1.72058 4.32594 1.69374 4.39 1.6794L6.29534 1.2494C6.42458 1.22023 6.56013 1.24359 6.67215 1.31436C6.78417 1.38512 6.86349 1.49749 6.89267 1.62674C6.92184 1.75598 6.89848 1.89153 6.82771 2.00355C6.75695 2.11557 6.64458 2.1949 6.51534 2.22407L4.61 2.65407C4.57394 2.66248 4.53703 2.66673 4.5 2.66674ZM5.16667 4.00007C5.04497 4.0002 4.9274 3.95593 4.836 3.87558C4.7446 3.79522 4.68565 3.68429 4.67019 3.56358C4.65474 3.44286 4.68384 3.32065 4.75204 3.21986C4.82024 3.11907 4.92286 3.04661 5.04067 3.01607L6.79534 2.55807C6.92361 2.52456 7.05994 2.54339 7.17434 2.6104C7.28874 2.67741 7.37183 2.78713 7.40534 2.9154C7.43884 3.04368 7.42002 3.18001 7.353 3.29441C7.28599 3.40881 7.17628 3.4919 7.048 3.5254L5.29334 3.9834C5.25201 3.99443 5.20943 4.00003 5.16667 4.00007ZM5.83467 5.37807C5.72093 5.37814 5.61057 5.33944 5.5218 5.26834C5.43303 5.19724 5.37114 5.09801 5.34636 4.987C5.32159 4.876 5.33539 4.75987 5.3855 4.65777C5.43561 4.55567 5.51903 4.47371 5.622 4.4254L6.996 3.78007C7.11606 3.72367 7.2536 3.71727 7.37838 3.76227C7.50315 3.80728 7.60493 3.90001 7.66133 4.02007C7.71774 4.14012 7.72414 4.27767 7.67913 4.40244C7.63412 4.52722 7.54139 4.629 7.42134 4.6854L6.04734 5.33074C5.98073 5.36179 5.90816 5.37794 5.83467 5.37807ZM0.496002 8.66674C0.363394 8.66674 0.236217 8.61406 0.142449 8.52029C0.0486807 8.42652 -0.0039978 8.29934 -0.0039978 8.16674V0.837402C-0.0039978 0.704794 0.0486807 0.577617 0.142449 0.483849C0.236217 0.390081 0.363394 0.337402 0.496002 0.337402C0.62861 0.337402 0.755787 0.390081 0.849556 0.483849C0.943324 0.577617 0.996002 0.704794 0.996002 0.837402V8.16674C0.996002 8.29934 0.943324 8.42652 0.849556 8.52029C0.755787 8.61406 0.62861 8.66674 0.496002 8.66674Z" fill="#676B71"/>
</svg>
