<svg width="16" height="16" viewBox="0 0 16 16" fill="none" xmlns="http://www.w3.org/2000/svg">
<path fill-rule="evenodd" clip-rule="evenodd" d="M8.00001 6.99992C7.73479 6.99992 7.48044 7.10528 7.2929 7.29281C7.10537 7.48035 7.00001 7.7347 7.00001 7.99992C7.00001 8.26514 7.10537 8.51949 7.2929 8.70703C7.48044 8.89456 7.73479 8.99992 8.00001 8.99992C8.26523 8.99992 8.51958 8.89456 8.70712 8.70703C8.89465 8.51949 9.00001 8.26514 9.00001 7.99992C9.00001 7.7347 8.89465 7.48035 8.70712 7.29281C8.51958 7.10528 8.26523 6.99992 8.00001 6.99992ZM6.33334 7.99992C6.33334 7.55789 6.50894 7.13397 6.8215 6.82141C7.13406 6.50885 7.55798 6.33325 8.00001 6.33325C8.44204 6.33325 8.86596 6.50885 9.17852 6.82141C9.49108 7.13397 9.66668 7.55789 9.66668 7.99992C9.66668 8.44195 9.49108 8.86587 9.17852 9.17843C8.86596 9.49099 8.44204 9.66659 8.00001 9.66659C7.55798 9.66659 7.13406 9.49099 6.8215 9.17843C6.50894 8.86587 6.33334 8.44195 6.33334 7.99992Z" fill="#676B71"/>
<path fill-rule="evenodd" clip-rule="evenodd" d="M7.00001 1.33325C7.00001 1.06804 7.10537 0.813682 7.2929 0.626145C7.48044 0.438609 7.73479 0.333252 8.00001 0.333252C8.26523 0.333252 8.51958 0.438609 8.70712 0.626145C8.89465 0.813682 9.00001 1.06804 9.00001 1.33325V1.74525C10.3175 1.9565 11.5347 2.57816 12.4783 3.52168C13.4218 4.46519 14.0434 5.68242 14.2547 6.99992H14.6667C14.9319 6.99992 15.1862 7.10528 15.3738 7.29281C15.5613 7.48035 15.6667 7.7347 15.6667 7.99992C15.6667 8.26514 15.5613 8.51949 15.3738 8.70703C15.1862 8.89456 14.9319 8.99992 14.6667 8.99992H14.2547C14.0434 10.3174 13.4218 11.5346 12.4783 12.4782C11.5347 13.4217 10.3175 14.0433 9.00001 14.2546V14.6666C9.00001 14.9318 8.89465 15.1862 8.70712 15.3737C8.51958 15.5612 8.26523 15.6666 8.00001 15.6666C7.73479 15.6666 7.48044 15.5612 7.2929 15.3737C7.10537 15.1862 7.00001 14.9318 7.00001 14.6666V14.2546C5.68251 14.0433 4.46528 13.4217 3.52177 12.4782C2.57826 11.5346 1.95659 10.3174 1.74534 8.99992H1.33334C1.06813 8.99992 0.813773 8.89456 0.626237 8.70703C0.4387 8.51949 0.333344 8.26514 0.333344 7.99992C0.333344 7.7347 0.4387 7.48035 0.626237 7.29281C0.813773 7.10528 1.06813 6.99992 1.33334 6.99992H1.74534C1.95659 5.68242 2.57826 4.46519 3.52177 3.52168C4.46528 2.57816 5.68251 1.9565 7.00001 1.74525V1.33325ZM8.00001 0.999919C7.9116 0.999919 7.82682 1.03504 7.76431 1.09755C7.7018 1.16006 7.66668 1.24485 7.66668 1.33325V2.03659C7.66668 2.11865 7.63642 2.19783 7.58168 2.25896C7.52694 2.3201 7.45157 2.35889 7.37001 2.36792C6.09272 2.5112 4.90203 3.08425 3.99318 3.99309C3.08434 4.90194 2.51129 6.09263 2.36801 7.36992C2.35898 7.45148 2.32019 7.52685 2.25905 7.58159C2.19792 7.63633 2.11874 7.66659 2.03668 7.66659H1.33334C1.24494 7.66659 1.16015 7.7017 1.09764 7.76422C1.03513 7.82673 1.00001 7.91151 1.00001 7.99992C1.00001 8.08832 1.03513 8.17311 1.09764 8.23562C1.16015 8.29813 1.24494 8.33325 1.33334 8.33325H2.03668C2.11874 8.33325 2.19792 8.36351 2.25905 8.41825C2.32019 8.47299 2.35898 8.54836 2.36801 8.62992C2.51129 9.90721 3.08434 11.0979 3.99318 12.0067C4.90203 12.9156 6.09272 13.4886 7.37001 13.6319C7.45157 13.6409 7.52694 13.6797 7.58168 13.7409C7.63642 13.802 7.66668 13.8812 7.66668 13.9633V14.6666C7.66668 14.755 7.7018 14.8398 7.76431 14.9023C7.82682 14.9648 7.9116 14.9999 8.00001 14.9999C8.08842 14.9999 8.1732 14.9648 8.23571 14.9023C8.29822 14.8398 8.33334 14.755 8.33334 14.6666V13.9633C8.33334 13.8812 8.3636 13.802 8.41834 13.7409C8.47308 13.6797 8.54845 13.6409 8.63001 13.6319C9.9073 13.4886 11.098 12.9156 12.0068 12.0067C12.9157 11.0979 13.4887 9.90721 13.632 8.62992C13.641 8.54836 13.6798 8.47299 13.741 8.41825C13.8021 8.36351 13.8813 8.33325 13.9633 8.33325H14.6667C14.7551 8.33325 14.8399 8.29813 14.9024 8.23562C14.9649 8.17311 15 8.08832 15 7.99992C15 7.91151 14.9649 7.82673 14.9024 7.76422C14.8399 7.7017 14.7551 7.66659 14.6667 7.66659H13.9633C13.8813 7.66659 13.8021 7.63633 13.741 7.58159C13.6798 7.52685 13.641 7.45148 13.632 7.36992C13.4887 6.09263 12.9157 4.90194 12.0068 3.99309C11.098 3.08425 9.9073 2.5112 8.63001 2.36792C8.54845 2.35889 8.47308 2.3201 8.41834 2.25896C8.3636 2.19783 8.33334 2.11865 8.33334 2.03659V1.33325C8.33334 1.24485 8.29822 1.16006 8.23571 1.09755C8.1732 1.03504 8.08842 0.999919 8.00001 0.999919ZM7.55201 3.12859C7.58806 3.15992 7.61696 3.19864 7.63674 3.24212C7.65653 3.2856 7.66674 3.33282 7.66668 3.38059V3.99992C7.66668 4.08832 7.7018 4.17311 7.76431 4.23562C7.82682 4.29813 7.9116 4.33325 8.00001 4.33325C8.08842 4.33325 8.1732 4.29813 8.23571 4.23562C8.29822 4.17311 8.33334 4.08832 8.33334 3.99992V3.37992C8.33345 3.33226 8.34377 3.28518 8.36361 3.24185C8.38345 3.19852 8.41235 3.15995 8.44837 3.12874C8.48438 3.09753 8.52667 3.0744 8.57238 3.06092C8.61809 3.04744 8.66616 3.04391 8.71334 3.05059C9.78185 3.20503 10.7717 3.70095 11.5352 4.46429C12.2987 5.22763 12.7947 6.21744 12.9493 7.28592C12.9561 7.33321 12.9527 7.38141 12.9392 7.42725C12.9257 7.47309 12.9026 7.5155 12.8713 7.5516C12.84 7.5877 12.8013 7.61665 12.7578 7.63649C12.7143 7.65633 12.6671 7.66659 12.6193 7.66659H12C11.9116 7.66659 11.8268 7.7017 11.7643 7.76422C11.7018 7.82673 11.6667 7.91151 11.6667 7.99992C11.6667 8.08832 11.7018 8.17311 11.7643 8.23562C11.8268 8.29813 11.9116 8.33325 12 8.33325H12.62C12.6677 8.33335 12.7147 8.34367 12.7581 8.36352C12.8014 8.38336 12.84 8.41226 12.8712 8.44827C12.9024 8.48429 12.9255 8.52658 12.939 8.57229C12.9525 8.618 12.956 8.66606 12.9493 8.71325C12.7949 9.78176 12.299 10.7716 11.5356 11.5351C10.7723 12.2986 9.78249 12.7946 8.71401 12.9493C8.66672 12.956 8.61852 12.9526 8.57268 12.9391C8.52684 12.9256 8.48443 12.9025 8.44833 12.8712C8.41223 12.8399 8.38328 12.8012 8.36344 12.7577C8.3436 12.7143 8.33334 12.667 8.33334 12.6193V11.9999C8.33334 11.9115 8.29822 11.8267 8.23571 11.7642C8.1732 11.7017 8.08842 11.6666 8.00001 11.6666C7.9116 11.6666 7.82682 11.7017 7.76431 11.7642C7.7018 11.8267 7.66668 11.9115 7.66668 11.9999V12.6199C7.66657 12.6676 7.65625 12.7147 7.63641 12.758C7.61657 12.8013 7.58767 12.8399 7.55165 12.8711C7.51564 12.9023 7.47335 12.9254 7.42764 12.9389C7.38193 12.9524 7.33386 12.9559 7.28668 12.9493C6.21817 12.7948 5.22828 12.2989 4.46482 11.5355C3.70136 10.7722 3.20529 9.7824 3.05068 8.71392C3.04389 8.66663 3.04735 8.61843 3.06083 8.57259C3.0743 8.52675 3.09747 8.48434 3.12877 8.44824C3.16006 8.41214 3.19875 8.38319 3.24222 8.36335C3.28568 8.34351 3.3329 8.33325 3.38068 8.33325H4.00001C4.08842 8.33325 4.1732 8.29813 4.23571 8.23562C4.29822 8.17311 4.33334 8.08832 4.33334 7.99992C4.33334 7.91151 4.29822 7.82673 4.23571 7.76422C4.1732 7.7017 4.08842 7.66659 4.00001 7.66659H3.38001C3.33235 7.66648 3.28527 7.65616 3.24194 7.63632C3.19861 7.61648 3.16004 7.58758 3.12883 7.55156C3.09762 7.51555 3.07449 7.47326 3.06101 7.42755C3.04753 7.38184 3.044 7.33377 3.05068 7.28659C3.20512 6.21808 3.70104 5.22819 4.46438 4.46473C5.22772 3.70127 6.21753 3.2052 7.28601 3.05059C7.33335 3.04374 7.38161 3.04716 7.4275 3.06062C7.4734 3.07408 7.51586 3.09726 7.55201 3.12859ZM3.78268 6.99992H4.00001C4.26523 6.99992 4.51958 7.10528 4.70712 7.29281C4.89465 7.48035 5.00001 7.7347 5.00001 7.99992C5.00001 8.26514 4.89465 8.51949 4.70712 8.70703C4.51958 8.89456 4.26523 8.99992 4.00001 8.99992H3.78268C3.96866 9.78142 4.36789 10.496 4.93593 11.064C5.50396 11.632 6.21851 12.0313 7.00001 12.2173V11.9999C7.00001 11.7347 7.10537 11.4803 7.2929 11.2928C7.48044 11.1053 7.73479 10.9999 8.00001 10.9999C8.26523 10.9999 8.51958 11.1053 8.70712 11.2928C8.89465 11.4803 9.00001 11.7347 9.00001 11.9999V12.2173C9.78151 12.0313 10.4961 11.632 11.0641 11.064C11.6321 10.496 12.0314 9.78142 12.2173 8.99992H12C11.7348 8.99992 11.4804 8.89456 11.2929 8.70703C11.1054 8.51949 11 8.26514 11 7.99992C11 7.7347 11.1054 7.48035 11.2929 7.29281C11.4804 7.10528 11.7348 6.99992 12 6.99992H12.2173C12.0314 6.21842 11.6321 5.50387 11.0641 4.93583C10.4961 4.3678 9.78151 3.96856 9.00001 3.78259V3.99992C9.00001 4.26514 8.89465 4.51949 8.70712 4.70703C8.51958 4.89456 8.26523 4.99992 8.00001 4.99992C7.73479 4.99992 7.48044 4.89456 7.2929 4.70703C7.10537 4.51949 7.00001 4.26514 7.00001 3.99992V3.78259C6.21851 3.96856 5.50396 4.3678 4.93593 4.93583C4.36789 5.50387 3.96866 6.21842 3.78268 6.99992Z" fill="#676B71"/>
</svg>
