<svg width="16" height="16" viewBox="0 0 16 16" fill="none" xmlns="http://www.w3.org/2000/svg">
<g clip-path="url(#clip0_1_1564)">
<path d="M12.8333 8.83342H7.66666C7.53405 8.83342 7.40687 8.78074 7.3131 8.68697C7.21934 8.5932 7.16666 8.46602 7.16666 8.33342V3.16675C7.16666 3.03414 7.21934 2.90696 7.3131 2.81319C7.40687 2.71943 7.53405 2.66675 7.66666 2.66675C7.79926 2.66675 7.92644 2.71943 8.02021 2.81319C8.11398 2.90696 8.16666 3.03414 8.16666 3.16675V7.83342H12.8333C12.9659 7.83342 13.0931 7.88609 13.1869 7.97986C13.2806 8.07363 13.3333 8.20081 13.3333 8.33342C13.3333 8.46602 13.2806 8.5932 13.1869 8.68697C13.0931 8.78074 12.9659 8.83342 12.8333 8.83342Z" fill="#676B71"/>
<path d="M8 16C3.58867 16 0 12.4113 0 8C0 3.58867 3.58867 0 8 0C12.4113 0 16 3.58867 16 8C16 12.4113 12.4113 16 8 16ZM8 1C4.14 1 1 4.14 1 8C1 11.86 4.14 15 8 15C11.86 15 15 11.86 15 8C15 4.14 11.86 1 8 1Z" fill="#676B71"/>
</g>
<defs>
<clipPath id="clip0_1_1564">
<rect width="16" height="16" fill="white"/>
</clipPath>
</defs>
</svg>
