<svg width="16" height="16" viewBox="0 0 16 16" fill="none" xmlns="http://www.w3.org/2000/svg">
<g clip-path="url(#clip0_1_1553)">
<path d="M11.6667 8C11.5593 8.0001 11.4548 7.96549 11.3687 7.90133C10.9553 7.594 7.33333 4.83333 7.33333 2.492C7.33528 1.83029 7.59955 1.19636 8.0682 0.729209C8.53685 0.262059 9.17162 -0.000178313 9.83333 1.03832e-06C10.542 1.03832e-06 11.2027 0.297334 11.6667 0.796001C11.9012 0.544549 12.1851 0.344101 12.5005 0.207152C12.8159 0.0702033 13.1561 -0.000312095 13.5 1.03832e-06C14.1617 -0.000178313 14.7965 0.262059 15.2651 0.729209C15.7338 1.19636 15.9981 1.83029 16 2.492C16 4.83333 12.378 7.594 11.9647 7.90133C11.8786 7.96549 11.774 8.0001 11.6667 8ZM9.83333 1C9.43673 0.999468 9.0561 1.15624 8.77491 1.43593C8.49372 1.71562 8.33492 2.0954 8.33333 2.492C8.33333 3.91733 10.5173 5.952 11.6667 6.868C12.816 5.952 15 3.91733 15 2.492C14.9984 2.0954 14.8396 1.71562 14.5584 1.43593C14.2772 1.15624 13.8966 0.999468 13.5 1C12.902 1 12.362 1.35133 12.1247 1.89467C11.966 2.26 11.3667 2.26 11.208 1.89467C11.0908 1.62793 10.8983 1.40119 10.6541 1.24226C10.4099 1.08334 10.1247 0.999143 9.83333 1ZM14.63 16H9.1C8.44 16 7.83333 15.6413 7.516 15.064L4.34467 9.27667C4.27529 9.15018 4.17311 9.04473 4.04887 8.97141C3.92463 8.89808 3.78293 8.8596 3.63867 8.86H1.15267C0.847483 8.86018 0.5547 8.73925 0.33859 8.52377C0.122481 8.30828 0.000706392 8.01585 0 7.71067L0 4.25533C0.000577357 3.99529 0.0647942 3.73934 0.187045 3.50982C0.309296 3.2803 0.485866 3.0842 0.701342 2.93862C0.916819 2.79304 1.16465 2.70241 1.42321 2.67465C1.68177 2.64688 1.94319 2.68282 2.18467 2.77933C4.27116 3.60763 5.98074 5.17344 6.98867 7.17933L8.50467 10.1973C8.73967 10.667 9.10128 11.0617 9.54869 11.3367C9.99609 11.6118 10.5115 11.7563 11.0367 11.754C12.34 11.754 13.632 12.1827 14.6747 12.9613L15.4513 13.5413C15.7947 13.798 16 14.2067 16 14.6347C15.9989 14.9973 15.8541 15.3446 15.5973 15.6006C15.3405 15.8565 14.9926 16.0002 14.63 16ZM1.594 3.66667C1.43722 3.66614 1.28663 3.72781 1.17528 3.83817C1.06392 3.94853 1.00088 4.09856 1 4.25533V7.71067C1 7.79333 1.06867 7.86 1.15267 7.86H3.63867C4.29867 7.86 4.90533 8.21867 5.22267 8.796L8.394 14.5833C8.53467 14.84 8.80533 15 9.10067 15H14.6307C14.7282 15.0005 14.8219 14.9624 14.8912 14.8939C14.9606 14.8254 15 14.7322 15.0007 14.6347C15.0004 14.5779 14.987 14.522 14.9614 14.4713C14.9359 14.4206 14.8989 14.3766 14.8533 14.3427L14.0767 13.7627C13.1975 13.1095 12.1319 12.7559 11.0367 12.754C10.3259 12.7572 9.62844 12.5614 9.02312 12.1889C8.4178 11.8164 7.92877 11.2819 7.61133 10.646L6.09533 7.628C5.19714 5.84123 3.67407 4.44651 1.81533 3.70867C1.74486 3.68085 1.66976 3.6666 1.594 3.66667Z" fill="#676B71"/>
<path d="M3.5 16.0001H2.45666C2.33972 16.0001 2.22648 15.9591 2.13669 15.8842C2.0469 15.8092 1.98625 15.7052 1.96533 15.5901L0.659997 8.44944C0.642506 8.32173 0.674946 8.1922 0.750562 8.0878C0.826179 7.98341 0.939145 7.9122 1.06594 7.88901C1.19274 7.86582 1.3236 7.89242 1.43127 7.96328C1.53895 8.03415 1.61515 8.14381 1.644 8.26944L2.87333 15.0001H3V8.36011C3 8.2275 3.05268 8.10032 3.14644 8.00655C3.24021 7.91279 3.36739 7.86011 3.5 7.86011C3.63261 7.86011 3.75978 7.91279 3.85355 8.00655C3.94732 8.10032 4 8.2275 4 8.36011V15.5001C4 15.6327 3.94732 15.7599 3.85355 15.8537C3.75978 15.9474 3.63261 16.0001 3.5 16.0001Z" fill="#676B71"/>
</g>
<defs>
<clipPath id="clip0_1_1553">
<rect width="16" height="16" fill="white"/>
</clipPath>
</defs>
</svg>
