<svg width="185" height="184" viewBox="0 0 185 184" fill="none" xmlns="http://www.w3.org/2000/svg">
<g filter="url(#filter0_d_1_1113)">
<circle cx="88.6666" cy="88" r="48" fill="white" fill-opacity="0.2" shape-rendering="crispEdges"/>
</g>
<circle cx="88.6666" cy="88" r="33" fill="#D4A0F9"/>
<g clip-path="url(#clip0_1_1113)">
<path d="M87.8301 71.6584C88.4878 71.4123 89.2064 71.3802 89.8835 71.5667L90.1701 71.6584L101.837 76.0334C102.428 76.2552 102.945 76.6406 103.326 77.1446C103.707 77.6486 103.936 78.2504 103.988 78.8801L104 79.1551V88.0934C104 90.7941 103.271 93.4447 101.889 95.7654C100.508 98.0861 98.5258 99.9907 96.1518 101.278L95.7085 101.51L90.1185 104.305C89.8107 104.459 89.4745 104.547 89.1309 104.565C88.7873 104.583 88.4438 104.529 88.1218 104.408L87.8818 104.305L82.2918 101.51C79.8761 100.302 77.8314 98.4645 76.3735 96.1911C74.9155 93.9176 74.0984 91.2927 74.0085 88.5934L74.0001 88.0934V79.1551C74.0001 78.5236 74.1795 77.9051 74.5173 77.3717C74.8552 76.8382 75.3376 76.4117 75.9085 76.1417L76.1635 76.0334L87.8301 71.6584ZM89.0001 74.7801L77.3335 79.1551V88.0934C77.3335 90.1851 77.8959 92.2383 78.9617 94.038C80.0276 95.8378 81.5576 97.3179 83.3918 98.3234L83.7835 98.5284L89.0001 101.137L94.2168 98.5284C96.088 97.593 97.6733 96.1716 98.8066 94.4132C99.9399 92.6547 100.579 90.6239 100.658 88.5334L100.667 88.0934V79.1551L89.0001 74.7801ZM87.5718 81.5867C87.7904 81.2217 88.1404 80.9541 88.5499 80.8388C88.9595 80.7235 89.3976 80.7692 89.7746 80.9665C90.1515 81.1638 90.4387 81.4978 90.5773 81.9001C90.716 82.3024 90.6955 82.7424 90.5201 83.1301L90.4285 83.3017L88.6118 86.3351H92.3035C93.5468 86.3351 94.3385 87.6217 93.8368 88.7134L93.7468 88.8834L90.4301 94.4134C90.2134 94.7823 89.8631 95.0538 89.4518 95.1716C89.0404 95.2893 88.5995 95.2444 88.2204 95.0461C87.8413 94.8477 87.553 94.5112 87.4152 94.1061C87.2774 93.701 87.3006 93.2584 87.4801 92.8701L87.5718 92.6984L89.3885 89.6667H85.6968C85.4153 89.6667 85.1382 89.5962 84.891 89.4614C84.6438 89.3267 84.4344 89.1321 84.2818 88.8955C84.1293 88.6589 84.0385 88.3878 84.0178 88.107C83.9972 87.8263 84.0472 87.5448 84.1635 87.2884L84.2535 87.1167L87.5718 81.5867Z" fill="white"/>
</g>
<defs>
<filter id="filter0_d_1_1113" x="0.666626" y="0" width="184" height="184" filterUnits="userSpaceOnUse" color-interpolation-filters="sRGB">
<feFlood flood-opacity="0" result="BackgroundImageFix"/>
<feColorMatrix in="SourceAlpha" type="matrix" values="0 0 0 0 0 0 0 0 0 0 0 0 0 0 0 0 0 0 127 0" result="hardAlpha"/>
<feOffset dx="4" dy="4"/>
<feGaussianBlur stdDeviation="22"/>
<feComposite in2="hardAlpha" operator="out"/>
<feColorMatrix type="matrix" values="0 0 0 0 0.643137 0 0 0 0 0.207843 0 0 0 0 0.941176 0 0 0 0.1 0"/>
<feBlend mode="normal" in2="BackgroundImageFix" result="effect1_dropShadow_1_1113"/>
<feBlend mode="normal" in="SourceGraphic" in2="effect1_dropShadow_1_1113" result="shape"/>
</filter>
<clipPath id="clip0_1_1113">
<rect width="40" height="40" fill="white" transform="translate(69.0001 68)"/>
</clipPath>
</defs>
</svg>
