<svg width="184" height="184" viewBox="0 0 184 184" fill="none" xmlns="http://www.w3.org/2000/svg">
<g filter="url(#filter0_d_1_1093)">
<circle cx="88" cy="88" r="48" fill="white" fill-opacity="0.2" shape-rendering="crispEdges"/>
</g>
<circle cx="88" cy="88" r="33" fill="#FBBC05"/>
<path d="M98 81.3333H94.6667V79.6666C94.6667 78.7825 94.3155 77.9347 93.6904 77.3096C93.0653 76.6844 92.2174 76.3333 91.3334 76.3333H74.6667C73.7826 76.3333 72.9348 76.6844 72.3097 77.3096C71.6845 77.9347 71.3333 78.7825 71.3333 79.6666V96.3333H74.6667C74.6667 96.9899 74.796 97.64 75.0473 98.2467C75.2986 98.8533 75.6669 99.4045 76.1311 99.8688C76.5954 100.333 77.1466 100.701 77.7533 100.953C78.3599 101.204 79.0101 101.333 79.6667 101.333C80.3233 101.333 80.9735 101.204 81.5801 100.953C82.1867 100.701 82.7379 100.333 83.2022 99.8688C83.6665 99.4045 84.0348 98.8533 84.2861 98.2467C84.5374 97.64 84.6667 96.9899 84.6667 96.3333H91.3334C91.3334 97.6593 91.8601 98.9311 92.7978 99.8688C93.7355 100.806 95.0073 101.333 96.3334 101.333C97.6594 101.333 98.9312 100.806 99.8689 99.8688C100.807 98.9311 101.333 97.6593 101.333 96.3333H104.667V87.9999L98 81.3333ZM79.6667 98.8333C79.3383 98.8331 79.0131 98.7683 78.7097 98.6426C78.4063 98.5168 78.1307 98.3325 77.8986 98.1002C77.6664 97.8679 77.4823 97.5921 77.3567 97.2887C77.2311 96.9852 77.1666 96.66 77.1667 96.3316C77.1668 96.0032 77.2316 95.678 77.3574 95.3746C77.4831 95.0712 77.6674 94.7956 77.8997 94.5635C78.132 94.3313 78.4078 94.1472 78.7113 94.0216C79.0147 93.8961 79.3399 93.8315 79.6683 93.8316C80.3316 93.8318 80.9676 94.0955 81.4365 94.5647C81.9053 95.0338 82.1686 95.67 82.1683 96.3333C82.1681 96.9965 81.9044 97.6325 81.4353 98.1014C80.9661 98.5702 80.3299 98.8335 79.6667 98.8333ZM74.6667 91.3333V79.6666H91.3334V91.3333H74.6667ZM96.3334 98.8333C96.0049 98.8331 95.6798 98.7683 95.3764 98.6426C95.073 98.5168 94.7974 98.3325 94.5652 98.1002C94.3331 97.8679 94.149 97.5921 94.0234 97.2887C93.8978 96.9852 93.8332 96.66 93.8334 96.3316C93.8335 96.0032 93.8983 95.678 94.024 95.3746C94.1498 95.0712 94.3341 94.7956 94.5664 94.5635C94.7987 94.3313 95.0745 94.1472 95.3779 94.0216C95.6814 93.8961 96.0066 93.8315 96.335 93.8316C96.9983 93.8318 97.6343 94.0955 98.1031 94.5647C98.572 95.0338 98.8352 95.67 98.835 96.3333C98.8348 96.9965 98.5711 97.6325 98.102 98.1014C97.6328 98.5702 96.9966 98.8335 96.3334 98.8333Z" fill="white"/>
<defs>
<filter id="filter0_d_1_1093" x="0" y="0" width="184" height="184" filterUnits="userSpaceOnUse" color-interpolation-filters="sRGB">
<feFlood flood-opacity="0" result="BackgroundImageFix"/>
<feColorMatrix in="SourceAlpha" type="matrix" values="0 0 0 0 0 0 0 0 0 0 0 0 0 0 0 0 0 0 127 0" result="hardAlpha"/>
<feOffset dx="4" dy="4"/>
<feGaussianBlur stdDeviation="22"/>
<feComposite in2="hardAlpha" operator="out"/>
<feColorMatrix type="matrix" values="0 0 0 0 0.984314 0 0 0 0 0.737255 0 0 0 0 0.0196078 0 0 0 0.15 0"/>
<feBlend mode="normal" in2="BackgroundImageFix" result="effect1_dropShadow_1_1093"/>
<feBlend mode="normal" in="SourceGraphic" in2="effect1_dropShadow_1_1093" result="shape"/>
</filter>
</defs>
</svg>

