<svg width="33" height="33" viewBox="0 0 33 33" fill="none" xmlns="http://www.w3.org/2000/svg">
<circle cx="16.1796" cy="16.1796" r="16.1796" fill="white"/>
<path fill-rule="evenodd" clip-rule="evenodd" d="M15.7704 11.9806C14.3956 10.3784 12.103 9.94743 10.3804 11.4146C8.65786 12.8817 8.41534 15.3347 9.76808 17.0699C10.8928 18.5126 14.2965 21.5553 15.4121 22.5401C15.5369 22.6503 15.5993 22.7054 15.6721 22.727C15.7356 22.7459 15.8052 22.7459 15.8687 22.727C15.9415 22.7054 16.0039 22.6503 16.1287 22.5401C17.2443 21.5553 20.648 18.5126 21.7727 17.0699C23.1255 15.3347 22.9126 12.8663 21.1604 11.4146C19.4082 9.96286 17.1452 10.3784 15.7704 11.9806Z" stroke="#3C4242" stroke-width="1.26066" stroke-linecap="round" stroke-linejoin="round"/>
</svg>

