<svg width="16" height="15" viewBox="0 0 16 15" fill="none" xmlns="http://www.w3.org/2000/svg">
<path d="M8.48844 12.4684C8.18497 12.2985 7.81503 12.2985 7.51155 12.4684L4.60195 14.0971C3.85735 14.5139 2.9664 13.8666 3.13267 13.0296L3.78242 9.75904C3.85019 9.41792 3.73586 9.06608 3.48051 8.82997L1.03205 6.56592C0.40552 5.98657 0.745797 4.93916 1.59319 4.83866L4.90468 4.44592C5.25002 4.40496 5.54928 4.18754 5.69495 3.87176L7.09196 0.843402C7.44939 0.0685822 8.5506 0.0685822 8.90804 0.843402L10.305 3.87176C10.4507 4.18754 10.75 4.40496 11.0953 4.44592L14.4068 4.83866C15.2542 4.93916 15.5945 5.98657 14.9679 6.56592L12.5195 8.82997C12.2641 9.06608 12.1498 9.41792 12.2176 9.75904L12.8673 13.0296C13.0336 13.8666 12.1426 14.5139 11.398 14.0971L8.48844 12.4684Z" fill="#FBBC05"/>
</svg>
