<svg width="40" height="40" viewBox="0 0 40 40" fill="none" xmlns="http://www.w3.org/2000/svg">
<circle cx="20" cy="20" r="20" fill="#4A2BF1" fill-opacity="0.1"/>
<path d="M28.7188 20.25C28.7188 24.6094 25.5195 28.2305 21.3359 28.8633V22.7812H23.375L23.7617 20.25H21.3359V18.6328C21.3359 17.9297 21.6875 17.2617 22.7773 17.2617H23.8672V15.1172C23.8672 15.1172 22.8828 14.9414 21.8984 14.9414C19.9297 14.9414 18.6289 16.1719 18.6289 18.3516V20.25H16.4141V22.7812H18.6289V28.8633C14.4453 28.2305 11.2812 24.6094 11.2812 20.25C11.2812 15.4336 15.1836 11.5312 20 11.5312C24.8164 11.5312 28.7188 15.4336 28.7188 20.25Z" fill="#4A2BF1"/>
</svg>
